<svg width="19.000000" height="19.339355" viewBox="0 0 19 19.3394" fill="none" xmlns="http://www.w3.org/2000/svg" xmlns:xlink="http://www.w3.org/1999/xlink">
	<desc>
			Created with Pixso.
	</desc>
	<defs/>
	<path id="Vector" d="M9.5 15.94L7.12 15.94C7.26 16.07 7.37 16.23 7.44 16.41C7.51 16.58 7.55 16.77 7.55 16.96C7.55 17.15 7.51 17.34 7.44 17.51C7.37 17.69 7.26 17.85 7.12 17.98L11.87 17.98C11.73 17.85 11.63 17.69 11.55 17.51C11.48 17.34 11.44 17.15 11.44 16.96C11.44 16.77 11.48 16.58 11.55 16.41C11.63 16.23 11.73 16.07 11.87 15.94L9.5 15.94Z" fill="#777790" fill-opacity="1.000000" fill-rule="nonzero"/>
	<path id="Vector" d="M16.62 15.94L14.25 15.94C14.38 16.07 14.49 16.23 14.56 16.41C14.64 16.58 14.68 16.77 14.68 16.96C14.68 17.15 14.64 17.34 14.56 17.51C14.49 17.69 14.38 17.85 14.25 17.98L19 17.98C18.86 17.85 18.75 17.69 18.68 17.51C18.6 17.34 18.56 17.15 18.56 16.96C18.56 16.77 18.6 16.58 18.68 16.41C18.75 16.23 18.86 16.07 19 15.94L16.62 15.94Z" fill="#777790" fill-opacity="1.000000" fill-rule="nonzero"/>
	<path id="Vector" d="M2.37 15.94L0 15.94C0.13 16.07 0.24 16.23 0.31 16.41C0.39 16.58 0.43 16.77 0.43 16.96C0.43 17.15 0.39 17.34 0.31 17.51C0.24 17.69 0.13 17.85 0 17.98L4.75 17.98C4.61 17.85 4.5 17.69 4.43 17.51C4.35 17.34 4.31 17.15 4.31 16.96C4.31 16.77 4.35 16.58 4.43 16.41C4.5 16.23 4.61 16.07 4.75 15.94L2.37 15.94Z" fill="#777790" fill-opacity="1.000000" fill-rule="nonzero"/>
	<path id="Vector" d="M14.92 6.78L18.32 6.78L18.32 8.14L14.92 8.14L14.92 6.78Z" fill="#777790" fill-opacity="1.000000" fill-rule="nonzero"/>
	<path id="Vector" d="M7.8 7.8L11.19 7.8L11.19 9.16L7.8 9.16L7.8 7.8Z" fill="#777790" fill-opacity="1.000000" fill-rule="nonzero"/>
	<path id="Vector" d="M17.98 4.31C17.96 2.77 17.49 1.27 16.62 0C15.75 1.27 15.28 2.77 15.26 4.31L15.26 6.1L17.98 6.1L17.98 4.31Z" fill="#777790" fill-opacity="1.000000" fill-rule="nonzero"/>
	<path id="Vector" d="M10.85 6.34C10.84 4.8 10.37 3.3 9.5 2.03C8.62 3.3 8.15 4.8 8.14 6.34L8.14 7.12L10.85 7.12L10.85 6.34Z" fill="#777790" fill-opacity="1.000000" fill-rule="nonzero"/>
	<path id="Vector" d="M14.25 18.66L19 18.66L19 19.33L14.25 19.33L14.25 18.66Z" fill="#777790" fill-opacity="1.000000" fill-rule="nonzero"/>
	<path id="Vector" d="M7.12 18.66L11.87 18.66L11.87 19.33L7.12 19.33L7.12 18.66Z" fill="#777790" fill-opacity="1.000000" fill-rule="nonzero"/>
	<path id="Vector" d="M14.25 10.51L19 10.51L19 15.26L14.25 15.26L14.25 10.51Z" fill="#777790" fill-opacity="1.000000" fill-rule="nonzero"/>
	<path id="Vector" d="M7.12 11.53L11.87 11.53L11.87 15.26L7.12 15.26L7.12 11.53Z" fill="#777790" fill-opacity="1.000000" fill-rule="nonzero"/>
	<path id="Vector" d="M18.42 8.82L14.82 8.82L14.25 9.83L19 9.83L18.42 8.82Z" fill="#777790" fill-opacity="1.000000" fill-rule="nonzero"/>
	<path id="Vector" d="M7.69 9.83L7.12 10.85L11.87 10.85L11.3 9.83L7.69 9.83Z" fill="#777790" fill-opacity="1.000000" fill-rule="nonzero"/>
	<path id="Vector" d="M0.67 8.82L4.07 8.82L4.07 10.17L0.67 10.17L0.67 8.82Z" fill="#777790" fill-opacity="1.000000" fill-rule="nonzero"/>
	<path id="Vector" d="M0 18.66L4.75 18.66L4.75 19.33L0 19.33L0 18.66Z" fill="#777790" fill-opacity="1.000000" fill-rule="nonzero"/>
	<path id="Vector" d="M2.37 4.07C1.55 5.27 1.08 6.68 1.02 8.14L3.72 8.14C3.66 6.68 3.19 5.27 2.37 4.07Z" fill="#777790" fill-opacity="1.000000" fill-rule="nonzero"/>
	<path id="Vector" d="M0 12.55L4.75 12.55L4.75 15.26L0 15.26L0 12.55Z" fill="#777790" fill-opacity="1.000000" fill-rule="nonzero"/>
	<path id="Vector" d="M0.57 10.85L0 11.87L4.75 11.87L4.17 10.85L0.57 10.85Z" fill="#777790" fill-opacity="1.000000" fill-rule="nonzero"/>
</svg>
