<svg width="19.000702" height="21.489990" viewBox="0 0 19.0007 21.49" fill="none" xmlns="http://www.w3.org/2000/svg" xmlns:xlink="http://www.w3.org/1999/xlink">
	<path id="Vector" d="M9.15 14.71L8.72 14.3C8.63 14.2 8.63 14.03 8.72 13.93L9.07 13.59L2.03 6.54C0.59 5.11 -0.06 3.04 0 0.25C0 0.14 0.06 0.05 0.16 0.01C0.26 -0.03 0.38 0.01 0.44 0.09C0.65 0.34 0.89 0.58 1.14 0.82C0.88 0.97 0.72 1.27 0.77 1.58C0.99 3.28 1.6 4.83 2.83 6.06L10.32 13.54L9.15 14.71Z" fill="#ffffff" fill-opacity="1.000000" fill-rule="evenodd"/>
	<path id="Vector" d="M10.67 13.19L3.18 5.7C2.13 4.64 1.5 3.27 1.26 1.51C1.24 1.41 1.29 1.31 1.4 1.26C1.48 1.21 1.6 1.22 1.67 1.28C3.02 2.41 4.49 3.3 4.5 3.3C4.52 3.31 4.54 3.32 4.55 3.33L8.1 6.88C8.18 6.96 8.19 7.07 8.15 7.17L8.03 7.45L8.31 7.32C8.41 7.29 8.52 7.3 8.6 7.37L10.32 9.11C10.4 9.17 10.42 9.29 10.37 9.39L9.88 10.48L10.99 10C11.08 9.95 11.19 9.98 11.26 10.05L12.54 11.33L10.67 13.19Z" fill="#ffffff" fill-opacity="1.000000" fill-rule="evenodd"/>
	<path id="Vector" d="M8.91 16.27C8.85 16.27 8.79 16.25 8.74 16.2C8.63 16.1 8.63 15.95 8.74 15.85L13.67 10.91C13.77 10.81 13.92 10.81 14.02 10.91C14.12 11 14.12 11.16 14.02 11.26L9.09 16.2C9.04 16.25 8.97 16.27 8.91 16.27Z" fill="#ffffff" fill-opacity="1.000000" fill-rule="evenodd"/>
	<path id="Vector" d="M16.54 21.48C15.77 21.48 15.29 21.02 15.25 20.26L15.23 19.87C15.02 19.65 14.21 18.8 13.38 18.5C12.3 18.11 11.87 16.61 11.79 16.35C11.69 16.16 11.05 15.13 10.19 14.93C10.11 14.9 10.03 14.84 10.01 14.75C9.98 14.66 10.01 14.56 10.07 14.5L12.32 12.25C12.37 12.21 12.43 12.17 12.5 12.18C12.57 12.18 12.64 12.21 12.67 12.25L18.39 18.05C18.97 18.64 19.14 19.33 18.87 19.99C18.48 20.91 17.36 21.48 16.54 21.48ZM12.45 14.45C12.45 14.3 12.33 14.2 12.2 14.2C12.06 14.2 11.94 14.3 11.94 14.45C11.94 14.59 12.06 14.7 12.2 14.7C12.33 14.7 12.45 14.59 12.45 14.45ZM14.12 16.2C14.12 16.06 14.01 15.95 13.87 15.95C13.73 15.95 13.62 16.06 13.62 16.2C13.62 16.34 13.73 16.45 13.87 16.45C14.01 16.45 14.12 16.34 14.12 16.2ZM15.9 17.97C15.9 17.83 15.78 17.72 15.64 17.72C15.51 17.72 15.39 17.83 15.39 17.97C15.39 18.11 15.51 18.22 15.64 18.22C15.78 18.22 15.9 18.11 15.9 17.97ZM17.55 19.67C17.55 19.53 17.43 19.42 17.29 19.42C17.16 19.42 17.04 19.53 17.04 19.67C17.04 19.81 17.16 19.92 17.29 19.92C17.43 19.92 17.55 19.81 17.55 19.67Z" fill="#ffffff" fill-opacity="1.000000" fill-rule="evenodd"/>
</svg>
