<svg width="27.000000" height="27.000000" viewBox="0 0 27 27" fill="none" xmlns="http://www.w3.org/2000/svg" xmlns:xlink="http://www.w3.org/1999/xlink">
	<defs>
		<clipPath id="clip0_79">
			<rect id="jumpsuit_10169677" rx="0.000000" width="26.000000" height="26.000000" transform="translate(0.500000 0.500000)" fill="white" fill-opacity="0"/>
		</clipPath>
	</defs>
	<rect id="jumpsuit_10169677" rx="0.000000" width="26.000000" height="26.000000" transform="translate(0.500000 0.500000)" fill="#FFFFFF" fill-opacity="0"/>
	<g clip-path="url(#clip0_79)">
		<path id="Vector" d="M9.22 9C9.46 8.6 9.87 8.28 10.38 8.11C10.89 7.94 11.47 7.92 12 8.05L10.85 4.66C10.81 4.54 10.73 4.43 10.64 4.34C10.54 4.24 10.42 4.16 10.28 4.1C10.14 4.04 9.99 4.01 9.83 4C9.68 3.99 9.52 4 9.37 4.04L8.77 4.2C8.5 4.27 8.27 4.42 8.14 4.62C8 4.81 7.96 5.04 8.03 5.26L9.22 9Z" fill="#777790" fill-opacity="1.000000" fill-rule="nonzero"/>
		<path id="Vector" d="M15.86 7.97C16.27 7.98 16.67 8.08 17.01 8.26C17.35 8.45 17.61 8.7 17.77 9L18.96 5.26C19.03 5.04 18.99 4.81 18.85 4.61C18.72 4.42 18.49 4.27 18.22 4.2L17.62 4.04C17.47 4 17.31 3.99 17.16 4C17 4.01 16.85 4.04 16.71 4.1C16.57 4.16 16.45 4.24 16.36 4.34C16.26 4.43 16.19 4.54 16.15 4.66L15 8.05C15.28 8.01 15.57 7.98 15.86 7.97Z" fill="#777790" fill-opacity="1.000000" fill-rule="nonzero"/>
		<path id="Vector" d="M17.24 10.79C17.49 10.77 17.74 10.74 18 10.7C17.79 10.51 17.63 10.3 17.53 10.07C17.43 9.83 17.3 9.59 17.14 9.36C17.03 9.23 16.87 9.13 16.68 9.07C16.48 9.01 16.27 8.98 16.06 9C15.82 9.03 15.57 9.06 15.3 9.07C14.82 9.1 14.32 9.11 14 9.12C13.99 9.64 14 10.46 14 11C15.08 10.98 16.17 10.91 17.24 10.79ZM16.24 10.45C16.2 10.48 16.15 10.51 16.1 10.54C16.04 10.56 15.98 10.58 15.92 10.58C15.86 10.59 15.79 10.58 15.73 10.57C15.67 10.55 15.62 10.53 15.57 10.5C15.52 10.47 15.49 10.43 15.46 10.39C15.44 10.35 15.43 10.31 15.43 10.26C15.43 10.22 15.45 10.17 15.48 10.13C15.51 10.09 15.55 10.06 15.61 10.03C15.69 9.99 15.79 9.97 15.89 9.97C16 9.98 16.09 10.01 16.17 10.05C16.24 10.1 16.29 10.17 16.3 10.24C16.32 10.31 16.29 10.39 16.24 10.45Z" fill="#777790" fill-opacity="1.000000" fill-rule="nonzero"/>
		<path id="Vector" d="M9.56 12.16C9.3 12.11 9.04 12.06 8.78 12C8.42 12.29 8 12.48 7.54 12.57C7.46 12.57 7.39 12.6 7.33 12.66C7.27 12.72 7.23 12.79 7.23 12.87C7.2 13.13 6.66 18.92 7.32 21C7.51 20.89 7.73 20.83 7.94 20.83L12.15 20.83C12.37 20.82 12.59 20.87 12.79 20.96C12.8 20.69 12.84 20.42 12.9 20.15C12.93 20.04 12.96 19.93 12.99 19.82L12.99 18.79C13 18.52 12.99 12.9 12.99 12.48C11.84 12.47 10.69 12.36 9.56 12.16ZM12.41 14.5L12.41 15.06C12.41 15.43 12.26 15.78 12.01 16.04C11.75 16.31 11.4 16.45 11.04 16.45L10.15 16.45C9.78 16.45 9.44 16.3 9.18 16.04C8.93 15.78 8.78 15.43 8.78 15.06L8.78 14.5C8.78 14.41 8.81 14.33 8.87 14.27C8.93 14.2 9.02 14.17 9.1 14.17L12.09 14.17C12.13 14.17 12.17 14.18 12.21 14.19C12.25 14.21 12.29 14.23 12.31 14.27C12.34 14.3 12.37 14.33 12.38 14.37C12.4 14.41 12.41 14.45 12.41 14.5Z" fill="#777790" fill-opacity="1.000000" fill-rule="nonzero"/>
		<path id="Vector" d="M17.91 18.99C17.84 18.99 17.77 18.97 17.71 18.92C17.65 18.87 17.61 18.81 17.6 18.73C17.58 18.66 17.59 18.58 17.63 18.52C17.66 18.45 17.71 18.4 17.78 18.37C18.43 18.07 19.35 17.66 20 17.37C19.99 16.96 19.98 16.56 19.97 16.16C19.97 16.16 17.19 17.41 16.73 17.61C16.66 17.65 16.57 17.65 16.49 17.61C16.41 17.58 16.35 17.52 16.31 17.44C16.28 17.36 16.28 17.27 16.31 17.19C16.34 17.11 16.4 17.05 16.48 17.01C17.32 16.63 19.11 15.83 19.94 15.46C19.88 14.08 19.77 12.98 19.76 12.88C19.75 12.8 19.71 12.73 19.65 12.68C19.59 12.62 19.52 12.59 19.45 12.58C18.99 12.49 18.56 12.29 18.2 12C16.82 12.29 15.41 12.45 14 12.48C13.99 13.77 14 18.63 14 19.82C14.11 20.19 14.18 20.57 14.2 20.96C14.4 20.87 14.62 20.82 14.84 20.83L19.05 20.83C19.26 20.83 19.48 20.89 19.67 21C19.9 20.05 20.01 19.07 19.99 18.09C19.66 18.24 18 19.01 17.91 18.99Z" fill="#777790" fill-opacity="1.000000" fill-rule="nonzero"/>
		<path id="Vector" d="M12.24 21L7.75 21C7.64 21 7.54 21.02 7.44 21.06C7.34 21.11 7.26 21.18 7.18 21.26C7.11 21.34 7.06 21.44 7.03 21.54C7 21.65 6.99 21.76 7 21.87L7.05 22.32C7.08 22.51 7.17 22.68 7.31 22.8C7.44 22.92 7.62 22.99 7.8 23L12.24 23C12.44 22.99 12.63 22.91 12.77 22.77C12.92 22.62 12.99 22.42 13 22.22L13 21.77C12.99 21.57 12.91 21.37 12.77 21.22C12.63 21.08 12.44 21 12.24 21Z" fill="#777790" fill-opacity="1.000000" fill-rule="nonzero"/>
		<path id="Vector" d="M11 9.01C10.73 8.97 10.45 9.01 10.22 9.11C9.99 9.2 9.81 9.36 9.72 9.54L9.47 10.07C9.36 10.3 9.2 10.52 9 10.71C9.24 10.75 9.49 10.78 9.75 10.8C10.82 10.93 11.91 10.99 12.99 11C12.99 10.45 13 9.65 12.99 9.11C12.33 9.11 11.66 9.08 11 9.01ZM11.13 10.59C11.01 10.58 10.9 10.55 10.82 10.49C10.74 10.44 10.7 10.36 10.7 10.28C10.7 10.2 10.74 10.12 10.82 10.06C10.9 10 11.01 9.97 11.13 9.97C11.24 9.97 11.35 10 11.44 10.06C11.52 10.12 11.56 10.2 11.56 10.28C11.56 10.36 11.52 10.44 11.44 10.49C11.35 10.55 11.24 10.58 11.13 10.59Z" fill="#777790" fill-opacity="1.000000" fill-rule="nonzero"/>
		<path id="Vector" d="M19.82 21.26C19.75 21.17 19.66 21.11 19.56 21.06C19.46 21.02 19.35 20.99 19.25 21L14.75 21C14.55 21 14.36 21.08 14.22 21.22C14.08 21.37 14 21.57 14 21.77L14 22.22C14 22.42 14.08 22.62 14.22 22.77C14.36 22.91 14.55 22.99 14.75 23L19.19 23C19.38 22.99 19.55 22.92 19.69 22.8C19.83 22.67 19.92 22.5 19.94 22.32C19.99 21.98 20.08 21.53 19.82 21.26Z" fill="#777790" fill-opacity="1.000000" fill-rule="nonzero"/>
		<path id="Vector" d="M9.92 15L11.07 15C11.31 14.99 11.55 14.91 11.72 14.77C11.9 14.63 11.99 14.44 12 14.23L12 14L9 14L9 14.23C9 14.44 9.09 14.63 9.27 14.77C9.44 14.91 9.68 14.99 9.92 15ZM10.5 14.17C10.6 14.17 10.7 14.21 10.77 14.27C10.84 14.33 10.88 14.41 10.88 14.5C10.88 14.58 10.84 14.66 10.77 14.72C10.7 14.78 10.6 14.82 10.5 14.82C10.39 14.82 10.29 14.78 10.22 14.72C10.15 14.66 10.11 14.58 10.11 14.5C10.11 14.41 10.15 14.33 10.22 14.27C10.29 14.21 10.39 14.17 10.5 14.17Z" fill="#777790" fill-opacity="1.000000" fill-rule="nonzero"/>
	</g>
</svg>
