<svg width="27.000000" height="18.365173" viewBox="0 0 27 18.3652" fill="none" xmlns="http://www.w3.org/2000/svg" xmlns:xlink="http://www.w3.org/1999/xlink">
	<path id="Vector" d="M27 4.59L27 2.58L26.88 2.58L26.88 0.67L26.78 0.67L26.78 0L25.99 0L25.99 0.67C25.99 0.67 7.11 0.8 3.81 0.67C3.31 0.67 0.43 0.95 3.32 5.39C3.32 5.39 4.63 7.38 2.83 9.6C1.06 11.79 0.26 16.22 0.05 17.56L0 17.56L0 18.36L8.18 18.36L8.18 17.56L8.18 16.83C4.64 17.48 10.62 9.25 10.36 10.64C10.55 10.69 10.75 10.72 10.96 10.72L13.09 10.72C14.4 10.72 16.15 9.31 16.15 7.99C16.15 7.42 15.95 6.9 15.61 6.49L26.15 6.49L26.49 5.24L26.94 5.24L26.94 4.63L26.86 4.63L26.88 4.59L27 4.59ZM13.09 9.55L10.96 9.55C10.8 9.55 10.65 9.53 10.51 9.49C10.63 8.75 10.73 8.1 10.8 7.59C10.97 8.18 11.32 8.8 12.01 9.07C12.06 9.09 12.11 9.09 12.16 9.09C12.32 9.09 12.47 9 12.53 8.84C12.61 8.63 12.51 8.4 12.3 8.31C11.59 8.04 11.45 6.97 11.42 6.49L13.48 6.49C14.15 6.67 14.64 7.28 14.64 8C14.64 8.85 13.95 9.55 13.09 9.55ZM24.02 5.24L13.5 5.24L15.32 4.63L24.02 4.63L24.02 5.24Z" fill="#777790" fill-opacity="1.000000" fill-rule="nonzero"/>
</svg>
