<svg width="17.004089" height="17.004089" viewBox="0 0 17.0041 17.0041" fill="none" xmlns="http://www.w3.org/2000/svg" xmlns:xlink="http://www.w3.org/1999/xlink">
	<desc>
			Created with Pixso.
	</desc>
	<defs/>
	<path id="Vector" d="M1.44 9.06C1.73 9.77 2.16 10.41 2.7 10.95C3.25 11.49 3.89 11.92 4.6 12.22C5.3 12.51 6.06 12.66 6.83 12.66C7.59 12.66 8.35 12.51 9.06 12.22C9.77 11.92 10.41 11.49 10.95 10.95C11.49 10.41 11.92 9.77 12.22 9.06C12.51 8.35 12.66 7.59 12.66 6.83C12.66 6.06 12.51 5.3 12.22 4.6C11.92 3.89 11.49 3.25 10.95 2.7C10.41 2.16 9.77 1.73 9.06 1.44C8.35 1.15 7.59 1 6.83 1C6.06 1 5.3 1.15 4.6 1.44C3.89 1.73 3.25 2.16 2.7 2.7C2.16 3.25 1.73 3.89 1.44 4.6C1.15 5.3 1 6.06 1 6.83C1 7.59 1.15 8.35 1.44 9.06ZM16 16L11 11" stroke="#2C2C3A" stroke-opacity="1.000000" stroke-width="2.000000" stroke-linejoin="round" stroke-linecap="round"/>
</svg>
