<svg width="15.750000" height="15.750000" viewBox="0 0 15.75 15.75" fill="none" xmlns="http://www.w3.org/2000/svg" xmlns:xlink="http://www.w3.org/1999/xlink">
	<desc>
			Created with Pixso.
	</desc>
	<defs/>
	<path id="Vector" d="M1.31 15.75C0.96 15.75 0.65 15.61 0.39 15.35C0.13 15.09 0 14.78 0 14.43L0 1.31C0 0.96 0.13 0.65 0.39 0.39C0.65 0.13 0.96 0 1.31 0L7.85 0L7.85 1.31L1.31 1.31L1.31 14.43L7.85 14.43L7.85 15.75L1.31 15.75ZM11.94 11.7L11 10.76L13.23 8.53L5.25 8.53L5.25 7.21L13.19 7.21L10.95 4.98L11.9 4.04L15.75 7.89L11.94 11.7Z" fill="#FFFFFF" fill-opacity="1.000000" fill-rule="nonzero"/>
</svg>
