<svg width="21.212769" height="22.912537" viewBox="0 0 21.2128 22.9125" fill="none" xmlns="http://www.w3.org/2000/svg" xmlns:xlink="http://www.w3.org/1999/xlink">
	<desc>
			Created with Pixso.
	</desc>
	<defs/>
	<path id="Vector" d="M8.02 7.33C8.7 8.02 9.63 8.4 10.6 8.4C11.57 8.4 12.5 8.02 13.19 7.33C13.87 6.65 14.26 5.72 14.26 4.75C14.26 3.78 13.87 2.85 13.19 2.16C12.5 1.48 11.57 1.09 10.6 1.09C9.63 1.09 8.7 1.48 8.02 2.16C7.33 2.85 6.95 3.78 6.95 4.75C6.95 5.72 7.33 6.65 8.02 7.33ZM16.9 8.4C17.18 8.4 17.46 8.5 17.68 8.69C17.9 8.87 18.04 9.12 18.1 9.41L20.09 20.37C20.12 20.55 20.12 20.73 20.07 20.9C20.02 21.08 19.94 21.24 19.83 21.37C19.71 21.51 19.57 21.62 19.41 21.7C19.25 21.77 19.07 21.81 18.89 21.81L2.31 21.81C2.13 21.81 1.96 21.77 1.79 21.7C1.63 21.62 1.49 21.51 1.38 21.37C1.26 21.24 1.18 21.08 1.13 20.9C1.09 20.73 1.08 20.55 1.11 20.37L3.11 9.41C3.16 9.12 3.31 8.87 3.53 8.69C3.74 8.5 4.02 8.4 4.31 8.4L16.9 8.4Z" stroke="#404050" stroke-opacity="1.000000" stroke-width="2.193751" stroke-linejoin="round"/>
</svg>
