<svg width="20.000000" height="20.000000" viewBox="0 0 27 27" fill="none" xmlns="http://www.w3.org/2000/svg" xmlns:xlink="http://www.w3.org/1999/xlink">
	<g transform="translate(3.5, 3.5)">
		<path id="Vector" d="M1.68 13.44C2.13 14.53 2.8 15.52 3.63 16.36C4.47 17.19 5.46 17.86 6.55 18.31C7.64 18.76 8.81 19 10 19C11.18 19 12.35 18.76 13.44 18.31C14.53 17.86 15.52 17.19 16.36 16.36C17.19 15.52 17.86 14.53 18.31 13.44C18.76 12.35 19 11.18 19 10C19 8.81 18.76 7.64 18.31 6.55C17.86 5.46 17.19 4.47 16.36 3.63C15.52 2.8 14.53 2.13 13.44 1.68C12.35 1.23 11.18 1 10 1C8.81 1 7.64 1.23 6.55 1.68C5.46 2.13 4.47 2.8 3.63 3.63C2.8 4.47 2.13 5.46 1.68 6.55C1.23 7.64 1 8.81 1 10C1 11.18 1.23 12.35 1.68 13.44ZM10 5L10 10L7 12" stroke="#FFFFFF" stroke-opacity="1.000000" stroke-width="2.000000" stroke-linejoin="round" stroke-linecap="round"/>
	</g>
</svg>
