<svg width="14.833374" height="16.500000" viewBox="0 0 14.8334 16.5" fill="none" xmlns="http://www.w3.org/2000/svg" xmlns:xlink="http://www.w3.org/1999/xlink">
	<desc>
			Created with Pixso.
	</desc>
	<defs/>
	<path id="Vector" d="M1.23 15.26C1.55 15.57 1.97 15.75 2.41 15.75C2.85 15.75 3.28 15.57 3.59 15.26C3.9 14.94 4.08 14.52 4.08 14.08C4.08 13.64 3.9 13.21 3.59 12.9C3.28 12.59 2.85 12.41 2.41 12.41C1.97 12.41 1.55 12.59 1.23 12.9C0.92 13.21 0.75 13.64 0.75 14.08C0.75 14.52 0.92 14.94 1.23 15.26ZM10.4 15.26C10.71 15.57 11.14 15.75 11.58 15.75C12.02 15.75 12.44 15.57 12.76 15.26C13.07 14.94 13.25 14.52 13.25 14.08C13.25 13.64 13.07 13.21 12.76 12.9C12.44 12.59 12.02 12.41 11.58 12.41C11.14 12.41 10.71 12.59 10.4 12.9C10.09 13.21 9.91 13.64 9.91 14.08C9.91 14.52 10.09 14.94 10.4 15.26ZM11.58 12.41L2.41 12.41M2.41 12.41L2.41 0.75L0.75 0.75M2.41 2.41L14.08 3.25L13.25 9.08L2.41 9.08" stroke="#FFFFFF" stroke-opacity="1.000000" stroke-width="1.500000" stroke-linejoin="round" stroke-linecap="round"/>
</svg>
