<svg width="21.599091" height="10.335632" viewBox="0 0 21.5991 10.3356" fill="none" xmlns="http://www.w3.org/2000/svg" xmlns:xlink="http://www.w3.org/1999/xlink">
	<desc>
			Created with Pixso.
	</desc>
	<defs/>
	<path id="Vector" d="M19.76 0.09C19.75 0.06 19.73 0.04 19.7 0.02C19.67 0 19.64 0 19.61 0C19.58 0 19.55 0 19.52 0.02C19.49 0.04 19.47 0.06 19.46 0.09L18.82 1.37L20.4 1.37L19.76 0.09Z" fill="#777790" fill-opacity="1.000000" fill-rule="nonzero"/>
	<path id="Vector" d="M7.96 4.04L9.37 4.04L9.37 2.08L8.77 1.54C8.75 1.52 8.74 1.5 8.73 1.48C8.72 1.46 8.72 1.43 8.72 1.41L8.72 0.36L1.51 0.36C1.48 0.36 1.46 0.36 1.43 0.38C0.97 0.68 0.56 1.06 0.24 1.51C0.22 1.54 0.21 1.57 0.21 1.61L0.21 3.87C0.21 3.92 0.23 3.96 0.26 3.99C0.29 4.02 0.34 4.04 0.38 4.04L0.53 4.04L0.53 4.41C0.53 4.56 0.58 4.71 0.66 4.83C0.71 4.9 0.73 4.99 0.73 5.07C0.74 5.12 0.73 5.17 0.71 5.22L0.02 7.05C0 7.1 -0.01 7.16 0 7.22C0 7.28 0.01 7.34 0.04 7.39C0.07 7.45 0.11 7.49 0.15 7.53C0.2 7.57 0.26 7.6 0.31 7.61L1.43 7.91C1.47 7.92 1.5 7.93 1.54 7.93C1.63 7.93 1.72 7.9 1.79 7.85C1.86 7.79 1.92 7.72 1.95 7.63L2.68 5.48L4.21 5.6C4.24 5.6 4.27 5.61 4.29 5.61C4.52 5.61 4.74 5.52 4.92 5.38C5.1 5.23 5.21 5.02 5.25 4.8L5.3 4.48C5.92 8.09 9.23 10.28 9.27 10.3C9.3 10.32 9.33 10.33 9.36 10.33C9.39 10.33 9.41 10.32 9.43 10.31C9.46 10.3 9.48 10.28 9.49 10.26L10.85 8.44C10.88 8.4 10.89 8.36 10.88 8.32C10.88 8.28 10.86 8.24 10.83 8.21C8.5 6.18 8.05 4.56 7.96 4.04ZM2.29 1.65L7.07 1.65C7.11 1.65 7.16 1.67 7.19 1.7C7.22 1.73 7.24 1.78 7.24 1.82C7.24 1.87 7.22 1.91 7.19 1.94C7.16 1.97 7.11 1.99 7.07 1.99L2.29 1.99C2.24 1.99 2.2 1.97 2.17 1.94C2.14 1.91 2.12 1.87 2.12 1.82C2.12 1.78 2.14 1.73 2.17 1.7C2.2 1.67 2.24 1.65 2.29 1.65ZM4.92 4.74C4.89 4.89 4.81 5.04 4.68 5.13C4.56 5.23 4.4 5.28 4.24 5.26L2.79 5.15L3.16 4.04L3.7 4.04C3.73 4.27 3.84 4.48 4.01 4.64C4.03 4.65 4.05 4.67 4.07 4.68C4.09 4.69 4.11 4.69 4.13 4.69C4.16 4.69 4.18 4.69 4.2 4.68C4.22 4.67 4.24 4.66 4.26 4.64C4.27 4.63 4.29 4.61 4.29 4.59C4.3 4.56 4.31 4.54 4.3 4.52C4.3 4.5 4.3 4.47 4.29 4.45C4.28 4.43 4.26 4.41 4.25 4.4C4.15 4.3 4.07 4.18 4.04 4.04L5.04 4.04L4.92 4.74ZM9.32 8.48C9.31 8.5 9.29 8.51 9.26 8.52C9.24 8.54 9.21 8.54 9.19 8.54C9.15 8.54 9.11 8.53 9.09 8.51C7.58 7.33 6.64 5.16 6.6 5.07C6.58 5.02 6.58 4.98 6.6 4.94C6.62 4.89 6.65 4.86 6.69 4.84C6.73 4.83 6.78 4.83 6.82 4.84C6.86 4.86 6.89 4.89 6.91 4.93C6.92 4.95 7.85 7.12 9.29 8.24C9.33 8.27 9.35 8.31 9.36 8.35C9.36 8.4 9.35 8.44 9.32 8.48Z" fill="#777790" fill-opacity="1.000000" fill-rule="nonzero"/>
	<path id="Vector" d="M21.29 1.71L16.31 1.71L16.04 1.07C16.03 1.04 16 1.02 15.98 1C15.95 0.98 15.92 0.97 15.88 0.97L13.51 0.97L13.03 0.41C13.02 0.4 13 0.38 12.98 0.37C12.95 0.36 12.93 0.36 12.91 0.36L9.05 0.36L9.05 1.34L9.65 1.88C9.67 1.89 9.68 1.91 9.69 1.94C9.7 1.96 9.71 1.98 9.71 2L9.71 4.04L13.62 4.04C13.64 4.04 13.65 4.04 13.67 4.04L15.22 3.63L21.29 3.63C21.33 3.63 21.37 3.62 21.41 3.6C21.45 3.59 21.48 3.57 21.51 3.54C21.53 3.51 21.56 3.48 21.57 3.44C21.59 3.4 21.59 3.36 21.59 3.32L21.59 2.01C21.59 1.93 21.56 1.85 21.5 1.8C21.45 1.74 21.37 1.71 21.29 1.71ZM12.28 1.89L10.9 1.89C10.86 1.89 10.81 1.87 10.78 1.84C10.75 1.8 10.73 1.76 10.73 1.72C10.73 1.67 10.75 1.63 10.78 1.6C10.81 1.57 10.86 1.55 10.9 1.55L12.28 1.55C12.32 1.55 12.36 1.57 12.39 1.6C12.43 1.63 12.44 1.67 12.44 1.72C12.44 1.76 12.43 1.8 12.39 1.84C12.36 1.87 12.32 1.89 12.28 1.89Z" fill="#777790" fill-opacity="1.000000" fill-rule="nonzero"/>
</svg>
