<svg width="21.000610" height="20.327515" viewBox="0 0 21.0006 20.3275" fill="none" xmlns="http://www.w3.org/2000/svg" xmlns:xlink="http://www.w3.org/1999/xlink">
	<path id="Vector" d="M20.93 1.69L19.65 0.12C19.55 -0.01 19.32 -0.05 19.19 0.05L17.58 1.33L17.16 0.81C17.02 0.68 16.83 0.64 16.7 0.74C16.56 0.84 16.53 1.07 16.63 1.2L17.06 1.73L10.36 7.14C10.46 7.2 10.53 7.27 10.59 7.37C11.77 8.85 11.87 8.91 12.04 9.24L20.86 2.15C21.03 2.02 21.03 1.82 20.93 1.69Z" fill="#ffffff" fill-opacity="1.000000" fill-rule="nonzero"/>
	<path id="Vector" d="M10.1 7.76C9.97 7.63 9.77 7.6 9.64 7.73L5.05 11.41L3.41 11.31C3.24 11.31 3.08 11.44 3.05 11.6C3.05 11.8 3.18 11.93 3.34 11.96L4.95 12.06L5.24 12.42L0.13 16.2C0.06 16.26 0 16.33 0 16.43C0 16.52 0 16.59 0.06 16.69L2.88 20.2C3.01 20.36 3.24 20.36 3.37 20.2L6.79 16.29C6.82 16.23 6.85 16.16 6.85 16.1L6.89 15.7C7.71 16.23 8.56 16 9.31 15.41C10.23 14.69 10.46 13.57 9.74 12.49L11.02 11.47C11.71 10.95 11.81 9.96 11.25 9.27L10.1 7.76ZM8.92 14.88C8.16 15.47 7.57 15.51 6.98 14.92L7.02 14.49C7.05 14.49 7.08 14.52 7.11 14.52C7.18 14.52 7.25 14.49 7.31 14.46L9.25 12.92C9.74 13.64 9.58 14.36 8.92 14.88Z" fill="#ffffff" fill-opacity="1.000000" fill-rule="nonzero"/>
	<path id="Vector" d="M14.3 16.43L17.42 16.43L17.42 18.98L14.3 18.98L14.3 16.43Z" fill="#ffffff" fill-opacity="1.000000" fill-rule="nonzero"/>
	<path id="Vector" d="M12.5 16.75L12.5 18.69C12.5 18.85 12.63 19.02 12.82 19.02L13.68 19.02L13.68 16.46L12.82 16.46C12.63 16.43 12.5 16.59 12.5 16.75Z" fill="#ffffff" fill-opacity="1.000000" fill-rule="nonzero"/>
	<path id="Vector" d="M20.73 17.34L18.07 16.52L18.07 18.92L20.73 17.97C21.06 17.84 21.02 17.44 20.73 17.34Z" fill="#ffffff" fill-opacity="1.000000" fill-rule="nonzero"/>
	<path id="Vector" d="M14.3 15.47L17.45 15.47L17.45 15.28L17.45 12.91L14.3 12.91L14.3 15.47Z" fill="#ffffff" fill-opacity="1.000000" fill-rule="nonzero"/>
	<path id="Vector" d="M12.5 13.24L12.5 15.15C12.5 15.34 12.63 15.47 12.82 15.47L13.68 15.47L13.68 12.91L12.82 12.91C12.63 12.91 12.5 13.05 12.5 13.24Z" fill="#ffffff" fill-opacity="1.000000" fill-rule="nonzero"/>
	<path id="Vector" d="M20.73 13.8L18.07 12.98L18.07 15.24L18.07 15.34L20.73 14.39C21.06 14.33 21.02 13.9 20.73 13.8Z" fill="#ffffff" fill-opacity="1.000000" fill-rule="nonzero"/>
</svg>
